<svg xmlns="http://www.w3.org/2000/svg"><symbol id="icon-facebook" viewBox="0 0 512 512"><path d="M204.067 184.692h-43.144v70.426h43.144V462h82.965V254.238h57.882l6.162-69.546h-64.044v-39.615c0-16.398 3.302-22.89 19.147-22.89h44.896V50h-57.441c-61.734 0-89.567 27.179-89.567 79.231v55.461z"/></symbol><symbol id="icon-twitter" viewBox="0 0 512 512"><path d="M462 128.223c-15.158 6.724-31.449 11.269-48.547 13.31 17.449-10.461 30.854-27.025 37.164-46.764a169.218 169.218 0 0 1-53.676 20.511c-15.418-16.428-37.386-26.691-61.698-26.691-54.56 0-94.668 50.916-82.337 103.787-70.25-3.524-132.534-37.177-174.223-88.314-22.142 37.983-11.485 87.691 26.158 112.85a84.148 84.148 0 0 1-38.285-10.574c-.917 39.162 27.146 75.781 67.795 83.949a84.688 84.688 0 0 1-38.17 1.447c10.754 33.58 41.972 58.018 78.96 58.699C139.604 378.282 94.846 390.721 50 385.436c37.406 23.982 81.837 37.977 129.571 37.977 156.932 0 245.595-132.551 240.251-251.435 16.517-11.917 30.846-26.804 42.178-43.755z"/></symbol><symbol id="icon-vimeo" viewBox="0 0 512 512"><path d="M460.802 160.227c-1.844 40.119-29.852 95.053-84.027 164.78-56.02 72.83-103.412 109.249-142.18 109.249-24.006 0-44.337-22.17-60.935-66.535-11.087-40.662-22.17-81.323-33.253-121.982-12.327-44.341-25.548-66.536-39.69-66.536-3.08 0-13.869 6.49-32.332 19.413L49 173.635c20.331-17.871 40.392-35.742 60.127-53.637 27.115-23.439 47.474-35.767 61.045-37.015 32.062-3.08 51.801 18.846 59.209 65.781 8 50.635 13.543 82.13 16.651 94.458 9.243 42.014 19.409 62.997 30.52 62.997 8.623 0 21.575-13.629 38.851-40.878 17.246-27.255 26.498-47.989 27.738-62.238 2.464-23.521-6.788-35.31-27.738-35.31-9.868 0-20.033 2.272-30.496 6.759 20.249-66.344 58.936-98.569 116.036-96.734 42.334 1.249 62.289 28.714 59.859 82.409z"/></symbol></svg>