<?xml version="1.0" encoding="UTF-8" standalone="no"?>
<svg width="945px" height="420px" viewBox="0 0 945 420" version="1.1" xmlns="http://www.w3.org/2000/svg" xmlns:xlink="http://www.w3.org/1999/xlink" style="background: #2C5574;">
    <!-- Generator: Sketch 42 (36781) - http://www.bohemiancoding.com/sketch -->
    <title>Artboard</title>
    <desc>Created with Sketch.</desc>
    <defs></defs>
    <g stroke="none" stroke-width="1" fill="none" fill-rule="evenodd">
        <g fill-rule="nonzero" fill="#FFFFFF">
            <g transform="translate(249.000000, 92.000000)">
                <g>
                    <g transform="translate(115.872265, 0.000000)">
                        <path d="M71.5880997,143.046775 C61.8962533,143.046775 52.7745155,141.044706 43.9378321,137.326577 C35.3862029,133.608448 27.974791,128.460269 21.418542,122.168051 C14.8622929,115.589823 9.73131544,107.867555 6.31066378,99.5732672 C2.60495781,90.7069596 0.609577668,81.5546421 0.609577668,71.8303047 C0.609577668,62.1059674 2.60495781,52.9536499 6.31066378,44.0873423 C10.0163697,35.5070446 15.1473472,28.0707867 21.418542,21.4925585 C27.974791,14.9143303 35.6712572,9.76615167 43.9378321,6.3340326 C52.7745155,2.61590361 61.8962533,0.61383416 71.5880997,0.61383416 C75.2938057,0.61383416 78.1443487,3.47393338 78.1443487,7.19206237 C78.1443487,10.9101914 75.2938057,13.7702906 71.5880997,13.7702906 C55.9101129,13.7702906 41.3723433,19.7764989 30.5402797,30.9308859 C19.4231618,42.0852729 13.4370214,56.6717789 13.4370214,72.1163147 C13.4370214,87.8468604 19.4231618,102.433366 30.5402797,113.301743 C41.6573976,124.45613 56.1951672,130.462339 71.5880997,130.462339 C87.2660865,130.462339 101.803856,124.45613 112.63592,113.301743 C123.753038,102.147356 129.739178,87.5608505 129.739178,72.1163147 C129.739178,61.8199575 127.173689,51.8096102 122.042712,42.9433026 C120.332386,39.7971935 121.187549,35.7930546 124.323146,34.076995 C127.458744,32.3609355 131.449504,33.2189653 133.15983,36.3650744 C139.431024,47.2334515 142.566622,59.5318781 142.566622,72.1163147 C142.566622,81.840652 140.571242,90.9929695 136.865536,99.8592771 C133.15983,108.439575 128.028852,115.875833 121.757657,122.454061 C115.201408,129.032289 107.504942,134.180468 99.2383673,137.612587 C90.6867382,141.330716 81.2799461,143.046775 71.5880997,143.046775 Z"></path>
                        <path d="M142.851676,0.327824238 C152.543522,0.327824238 161.66526,2.32989369 170.501944,6.04802268 C179.053573,9.76615167 186.464985,14.9143303 193.021234,21.2065485 C199.577483,27.7847768 204.70846,35.5070446 208.129112,43.8013324 C211.834818,52.66764 213.830198,61.8199575 213.830198,71.5442948 C213.830198,81.2686322 211.834818,90.4209497 208.129112,99.2872573 C204.423406,107.867555 199.292429,115.303813 193.021234,121.882041 C186.464985,128.460269 178.768519,133.608448 170.501944,137.040567 C161.66526,140.758696 152.543522,142.760765 142.851676,142.760765 C139.14597,142.760765 136.295427,139.900666 136.295427,136.182537 C136.295427,132.464408 139.14597,129.604309 142.851676,129.604309 C158.529663,129.604309 173.067432,123.598101 183.899496,112.443714 C195.016614,101.289327 201.002754,86.7028207 201.002754,71.2582849 C201.002754,55.5277392 195.016614,40.9412332 183.899496,30.0728561 C172.782378,18.9184692 158.244609,12.9122608 142.851676,12.9122608 C127.173689,12.9122608 112.63592,18.9184692 101.803856,30.0728561 C90.6867382,41.2272431 84.7005977,55.8137491 84.7005977,71.2582849 C84.7005977,81.5546421 87.2660865,91.5649894 92.397064,100.431297 C94.1073898,103.577406 93.2522269,107.581545 90.1166296,109.297605 C86.9810322,111.013664 82.9902719,110.155634 81.2799461,107.009525 C75.0087514,96.1411481 71.873154,83.8427215 71.873154,71.2582849 C71.873154,61.5339476 73.8685341,52.38163 77.5742401,43.5153225 C81.2799461,34.9350248 86.4109236,27.4987668 92.6821183,20.9205386 C99.2383673,14.3423104 106.934834,9.19413182 115.201408,5.76201276 C123.753038,2.32989369 133.15983,0.327824238 142.851676,0.327824238 Z"></path>
                    </g>
                    <path d="M41.7976149,230.851821 C38.9470718,233.711921 35.5264201,235.14197 31.5356599,235.14197 C26.6897367,235.14197 22.6989764,233.425911 20.1334877,230.279802 C17.2829446,226.847682 16.1427274,222.271524 16.1427274,215.979305 C16.1427274,211.689157 16.712836,208.257038 18.1381075,205.110928 C19.563379,202.250829 21.2737049,199.96275 23.5541393,198.24669 C25.8345738,196.530631 28.6851168,195.958611 31.8207142,195.958611 C35.8114744,195.958611 39.2321261,197.388661 41.7976149,199.96275 L41.7976149,181.372105 C41.7976149,179.370035 43.2228864,177.939986 45.2182665,177.939986 L45.2182665,177.939986 C46.9285924,177.939986 48.6389182,179.370035 48.6389182,181.372105 L48.6389182,231.709851 C48.6389182,233.139901 47.498701,233.997931 46.3584837,233.997931 L44.3631036,233.997931 C42.9378321,233.997931 42.0826692,232.853891 42.0826692,231.709851 L42.0826692,230.851821 L41.7976149,230.851821 Z M41.5125606,205.682948 C39.8022347,203.966889 38.3769632,203.108859 36.9516917,202.536839 C35.5264201,201.964819 34.1011486,201.678809 32.3908228,201.678809 C29.2552254,201.678809 26.974791,202.822849 25.2644652,205.110928 C23.5541393,207.399008 22.6989764,210.831127 22.6989764,215.121276 C22.6989764,224.559603 26.1196281,229.421772 32.6758771,229.421772 C34.9563115,229.421772 36.9516917,228.849752 38.9470718,227.705712 C40.6573976,226.561673 41.5125606,225.417633 41.5125606,223.987583 L41.5125606,205.682948 Z"></path>
                    <path d="M117.907114,229.993792 C116.196789,231.709851 114.486463,232.853891 112.491083,233.711921 C110.495702,234.56995 108.500322,234.85596 105.934834,234.85596 C102.229128,234.85596 99.3785845,233.997931 97.0981501,231.995861 C95.10277,229.993792 93.9625527,227.419702 93.9625527,223.701573 C93.9625527,219.411425 95.6728786,216.265315 99.3785845,213.977236 C102.799236,211.689157 107.930214,210.545117 114.201408,210.259107 L117.62206,210.259107 L117.62206,209.115067 C117.62206,206.540978 117.051951,204.538909 115.62668,203.394869 C114.486463,202.250829 112.491083,201.678809 109.64054,201.678809 C107.645159,201.678809 105.649779,201.964819 104.224508,202.536839 C103.369345,202.822849 102.514182,203.108859 101.659019,203.680879 C101.659019,203.680879 101.08891,203.966889 100.803856,204.252899 C100.518802,204.538909 99.9486932,204.538909 99.3785845,204.538909 C97.953313,204.538909 96.5280415,203.394869 96.5280415,201.678809 C96.5280415,200.82078 96.8130958,200.24876 97.3832044,199.67674 C97.953313,199.39073 98.5234216,198.81871 98.8084759,198.5327 C100.233747,197.67467 101.944073,197.102651 104.224508,196.816641 C106.219888,196.244621 108.500322,196.244621 110.495702,196.244621 C115.341626,196.244621 119.047332,197.388661 121.327766,199.39073 C123.608201,201.392799 124.748418,205.110928 124.748418,209.973097 L124.748418,225.417633 L124.748418,231.709851 C124.748418,233.139901 123.608201,233.997931 122.467983,233.997931 L120.757657,233.997931 C119.332386,233.997931 118.477223,232.853891 118.477223,231.709851 L118.477223,229.993792 L117.907114,229.993792 Z M117.907114,215.121276 L115.62668,215.121276 C110.780757,215.121276 107.075051,215.693296 104.794616,217.123345 C102.229128,218.553395 101.08891,220.555464 101.08891,223.129554 C101.08891,225.131623 101.659019,226.561673 102.799236,227.705712 C103.939453,228.849752 105.649779,229.135762 107.930214,229.135762 C109.64054,229.135762 111.350865,228.849752 113.061191,228.277732 C114.771517,227.705712 115.911734,226.847682 116.766897,225.989653 C117.62206,225.131623 118.192169,224.273593 118.192169,223.415563 L118.192169,215.121276 L117.907114,215.121276 Z"></path>
                    <path d="M0.179686279,231.423841 C0.179686279,232.853891 1.3199035,233.711921 2.46012072,233.711921 L4.74055516,233.711921 C6.16582669,233.711921 7.02098961,232.567881 7.02098961,231.423841 L7.02098961,184.232204 C7.02098961,182.230135 5.59571808,180.800085 3.60033794,180.800085 L3.60033794,180.800085 C1.60495781,180.800085 0.179686279,182.230135 0.179686279,184.232204 L0.179686279,184.518214 L0.179686279,231.423841 Z"></path>
                    <path d="M82.8454348,227.419702 C80.5650004,228.849752 78.2845659,229.421772 75.1489686,229.421772 C71.4432626,229.421772 68.5927196,228.277732 66.5973394,225.989653 C64.6019593,223.701573 63.4617421,220.555464 63.4617421,216.551325 L86.2660865,216.551325 C87.4063037,216.551325 88.5465209,215.407286 88.5465209,214.263246 L88.5465209,211.975167 C88.5465209,208.829057 87.9764123,205.968958 86.8361951,203.394869 C85.6959779,200.82078 83.9856521,199.10472 81.7052176,197.67467 C79.4247832,196.244621 76.5742401,195.672601 73.4386428,195.672601 C70.3030454,195.672601 67.4525023,196.530631 64.6019593,197.96068 C62.0364705,199.39073 60.0410904,201.678809 58.6158189,204.538909 C57.1905474,207.399008 56.3353844,210.831127 56.3353844,214.835266 C56.3353844,221.413494 57.760656,226.275663 60.8962533,229.707782 C64.0318507,233.139901 68.3076653,234.85596 74.2938057,234.85596 C79.1397289,234.85596 82.8454348,233.711921 85.6959779,231.709851 C86.2660865,231.423841 86.5511408,230.851821 86.8361951,230.565811 L87.1212494,230.279802 C87.4063037,229.993792 87.4063037,229.421772 87.4063037,228.849752 C87.4063037,227.419702 86.2660865,225.989653 84.5557607,225.989653 C83.9856521,225.989653 83.4155434,226.275663 82.8454348,226.561673 C83.4155434,226.847682 83.1304891,227.133692 82.8454348,227.419702 Z M81.9902719,210.545117 C81.9902719,211.117137 81.4201633,211.689157 80.8500547,211.689157 L63.4617421,211.689157 C63.7467964,208.543047 64.6019593,206.254968 66.3122851,204.252899 C68.022611,202.536839 70.3030454,201.392799 73.1535885,201.392799 C78.8546746,201.392799 81.7052176,204.538909 81.9902719,210.545117 L81.9902719,210.545117 Z"></path>
                    <g transform="translate(164.331497, 177.326152)">
                        <path d="M112.920974,20.9205386 L113.776137,23.208618 C115.201408,21.7785684 116.911734,20.6345287 119.192169,19.7764989 C121.187549,18.9184692 123.753038,18.6324592 126.033472,18.6324592 C129.169069,18.6324592 131.734558,19.2044791 133.729938,20.6345287 C135.725318,22.0645783 137.15059,24.0666478 137.720699,26.926747 C138.005753,28.3567966 138.290807,30.644876 138.290807,34.076995 L138.290807,54.3836995 C138.290807,55.5277392 137.435644,56.6717789 136.010373,56.6717789 L133.729938,56.6717789 C132.589721,56.6717789 131.449504,55.8137491 131.449504,54.3836995 L131.449504,34.363005 C131.449504,31.7889157 131.16445,30.0728561 130.879395,28.9288164 C130.594341,27.4987668 129.739178,26.3547271 128.313906,25.7827073 C127.173689,25.2106875 125.463363,24.6386676 123.467983,24.6386676 C121.472603,24.6386676 119.762277,24.9246775 118.337006,25.4966974 C116.911734,26.0687172 115.771517,26.6407371 114.916354,27.4987668 C114.061191,28.3567966 113.776137,29.2148264 113.776137,30.3588661 L113.776137,54.3836995 L113.776137,54.3836995 C113.776137,55.5277392 112.920974,56.6717789 111.495702,56.6717789 L109.215268,56.6717789 C108.075051,56.6717789 106.934834,55.8137491 106.934834,54.3836995 L106.934834,54.3836995 L106.934834,22.0645783 C106.934834,20.3485188 108.360105,19.2044791 109.785377,19.2044791 C111.495702,19.2044791 112.350865,20.0625089 112.920974,20.9205386 Z"></path>
                        <path d="M32.8207142,6.62004252 C33.6758771,7.19206237 34.2459857,8.33610206 34.2459857,9.48014174 C34.2459857,11.1962013 32.8207142,12.6262509 31.1103883,12.6262509 C30.5402797,12.6262509 29.6851168,12.340241 29.1150082,12.054231 C28.8299539,11.7682211 28.2598453,11.4822112 27.6897367,11.1962013 C26.8345738,10.6241814 25.6943565,10.3381715 24.5541393,9.76615167 C22.5587592,9.19413182 20.8484333,8.9081219 18.8530532,8.9081219 C15.7174559,8.9081219 13.1519671,9.48014174 11.7266956,10.9101914 C10.0163697,12.340241 9.16120683,14.3423104 9.16120683,16.6303898 C9.16120683,18.0604394 9.44626113,19.2044791 10.0163697,20.3485188 C10.5864784,21.4925585 11.7266956,22.3505882 13.1519671,23.208618 C14.5772386,24.0666478 17.1427274,24.9246775 20.563379,26.0687172 C25.4093022,27.4987668 28.8299539,29.5008363 31.1103883,32.0749256 C33.3908228,34.6490149 34.53104,37.795124 34.53104,41.513253 C34.53104,46.3754217 32.8207142,50.3795606 29.6851168,53.2396598 C26.5495195,56.099759 22.2737049,57.5298086 16.5726188,57.5298086 C13.7220757,57.5298086 10.8715327,57.2437987 8.59109822,56.6717789 C6.02560947,56.099759 4.03022933,55.2417293 2.60495781,54.0976896 C2.0348492,53.8116797 1.17968628,52.9536499 0.894631974,52.66764 C0.609577668,52.0956201 0.324523363,51.5236003 0.324523363,50.9515804 C0.324523363,49.2355209 1.74979489,47.8054713 3.46012072,47.8054713 C4.03022933,47.8054713 4.60033794,48.0914812 5.17044655,48.3774911 C5.17044655,48.3774911 5.74055516,48.6635011 6.31066378,48.949511 C7.450881,49.5215308 8.59109822,50.0935507 9.73131544,50.6655705 C12.0117499,51.5236003 14.2921843,52.0956201 16.8576731,52.0956201 C20.2783247,52.0956201 22.8438135,51.2375904 24.8391936,49.8075408 C26.5495195,48.0914812 27.6897367,46.0894118 27.6897367,43.2293125 C27.6897367,41.513253 27.4046824,40.0832034 26.8345738,38.6531538 C26.2644652,37.5091141 25.1242479,36.3650744 23.6989764,35.5070446 C22.2737049,34.6490149 20.2783247,33.7909851 17.4277817,32.6469454 C13.4370214,31.5029057 10.5864784,30.3588661 8.59109822,28.9288164 C6.59571808,27.4987668 5.17044655,26.0687172 4.03022933,24.3526577 C2.89001211,22.6365982 2.60495781,20.3485188 2.60495781,17.7744295 C2.60495781,14.6283203 3.17506642,12.054231 4.60033794,10.0521616 C6.02560947,7.76408221 8.02098961,6.3340326 10.5864784,5.18999291 C13.1519671,4.04595322 16.0025102,3.47393338 19.4231618,3.47393338 C21.418542,3.47393338 23.6989764,3.7599433 25.9794108,4.33196315 C29.6851168,4.33196315 32.2506056,6.3340326 32.8207142,6.62004252 Z"></path>
                        <path d="M172.782378,53.5256697 C169.931835,56.385769 166.511183,57.8158186 162.520423,57.8158186 C157.6745,57.8158186 153.68374,56.099759 151.118251,52.9536499 C148.267708,49.5215308 147.127491,44.9453721 147.127491,38.6531538 C147.127491,34.363005 147.697599,30.9308859 149.122871,27.7847768 C150.548142,24.9246775 152.258468,22.6365982 154.538903,20.9205386 C156.819337,19.2044791 159.66988,18.6324592 162.805477,18.6324592 C166.796238,18.6324592 170.216889,20.0625089 172.782378,22.6365982 L172.782378,4.04595322 C172.782378,2.04388377 174.20765,0.61383416 176.20303,0.61383416 L176.20303,0.61383416 C177.913356,0.61383416 179.623681,2.04388377 179.623681,4.04595322 L179.623681,54.3836995 C179.623681,55.8137491 178.483464,56.6717789 177.343247,56.6717789 L175.347867,56.6717789 C173.922595,56.6717789 173.067432,55.5277392 173.067432,54.3836995 L173.067432,53.5256697 L172.782378,53.5256697 Z M172.497324,28.3567966 C170.786998,26.6407371 169.361726,25.7827073 167.936455,25.2106875 C166.511183,24.6386676 165.085912,24.3526577 163.375586,24.3526577 C160.239989,24.3526577 157.959554,25.4966974 156.249228,27.7847768 C154.538903,30.0728561 153.68374,33.5049752 153.68374,37.795124 C153.68374,47.2334515 157.104391,52.0956201 163.66064,52.0956201 C165.941075,52.0956201 167.936455,51.5236003 169.931835,50.3795606 C171.642161,49.2355209 172.497324,48.0914812 172.497324,46.6614316 L172.497324,28.3567966 Z"></path>
                        <path d="M91.2568468,52.66764 C89.5465209,54.3836995 87.8361951,55.5277392 85.840815,56.385769 C83.8454348,57.2437987 81.8500547,57.5298086 79.2845659,57.5298086 C75.57886,57.5298086 72.7283169,56.6717789 70.4478825,54.6697094 C68.4525023,52.66764 67.3122851,50.0935507 67.3122851,46.3754217 C67.3122851,42.0852729 69.022611,38.9391637 72.7283169,36.6510843 C76.1489686,34.363005 81.2799461,33.2189653 87.5511408,32.9329554 L90.9717925,32.9329554 L90.9717925,31.7889157 C90.9717925,29.2148264 90.4016839,27.2127569 88.9764123,26.0687172 C87.5511408,24.9246775 85.5557607,24.3526577 82.7052176,24.3526577 C80.7098375,24.3526577 78.7144573,24.6386676 77.2891858,25.2106875 C76.4340229,25.4966974 75.57886,25.7827073 74.7236971,26.3547271 C74.7236971,26.3547271 74.1535885,26.6407371 73.8685341,26.926747 C73.5834798,27.2127569 73.0133712,27.2127569 72.4432626,27.2127569 C71.0179911,27.2127569 69.5927196,26.0687172 69.5927196,24.3526577 C69.5927196,23.4946279 69.8777739,22.9226081 70.4478825,22.3505882 C71.0179911,22.0645783 71.5880997,21.4925585 71.873154,21.2065485 C73.2984255,20.3485188 75.0087514,19.7764989 77.2891858,19.490489 C79.2845659,18.9184692 81.5650004,18.9184692 83.5603805,18.9184692 C88.4063037,18.9184692 92.1120097,20.0625089 94.3924441,22.0645783 C96.6728786,24.0666478 97.8130958,27.7847768 97.8130958,32.6469454 L97.8130958,48.0914812 L97.8130958,54.3836995 C97.8130958,55.8137491 96.6728786,56.6717789 95.5326614,56.6717789 L93.8223355,56.6717789 C92.397064,56.6717789 91.5419011,55.5277392 91.5419011,54.3836995 L91.5419011,52.66764 L91.2568468,52.66764 Z M90.9717925,37.795124 L88.691358,37.795124 C83.8454348,37.795124 80.1397289,38.3671439 77.8592944,39.7971935 C75.2938057,41.2272431 74.1535885,43.2293125 74.1535885,45.8034018 C74.1535885,47.8054713 74.7236971,49.2355209 75.8639143,50.3795606 C77.0041315,51.5236003 78.7144573,51.8096102 80.9948918,51.8096102 C82.7052176,51.8096102 84.4155434,51.5236003 86.1258693,50.9515804 C87.8361951,50.3795606 88.9764123,49.5215308 89.8315752,48.6635011 C90.6867382,47.8054713 91.2568468,46.9474415 91.2568468,46.0894118 L91.2568468,37.795124 L90.9717925,37.795124 Z"></path>
                        <path d="M210.979655,52.66764 C209.269329,54.3836995 207.559003,55.5277392 205.563623,56.385769 C203.568243,57.2437987 201.572863,57.5298086 199.007374,57.5298086 C195.301668,57.5298086 192.451125,56.6717789 190.170691,54.6697094 C188.175311,52.66764 187.035093,50.0935507 187.035093,46.3754217 C187.035093,42.0852729 188.745419,38.9391637 192.451125,36.6510843 C195.871777,34.363005 201.002754,33.2189653 207.273949,32.9329554 L210.694601,32.9329554 L210.694601,31.7889157 C210.694601,29.2148264 210.124492,27.2127569 208.699221,26.0687172 C207.273949,24.9246775 205.278569,24.3526577 202.428026,24.3526577 C200.432646,24.3526577 198.437266,24.6386676 197.011994,25.2106875 C196.156831,25.4966974 195.301668,25.7827073 194.446505,26.3547271 C194.446505,26.3547271 193.876397,26.6407371 193.591342,26.926747 C193.306288,27.2127569 192.736179,27.2127569 192.166071,27.2127569 C190.740799,27.2127569 189.315528,26.0687172 189.315528,24.3526577 C189.315528,23.4946279 189.600582,22.9226081 190.170691,22.3505882 C190.740799,22.0645783 191.310908,21.4925585 191.595962,21.2065485 C193.021234,20.3485188 194.73156,19.7764989 197.011994,19.490489 C199.007374,18.9184692 201.287809,18.9184692 203.283189,18.9184692 C208.129112,18.9184692 211.834818,20.0625089 214.115252,22.0645783 C216.395687,24.0666478 217.535904,27.7847768 217.535904,32.6469454 L217.535904,48.0914812 L217.535904,54.3836995 C217.535904,55.8137491 216.395687,56.6717789 215.25547,56.6717789 L213.545144,56.6717789 C212.119872,56.6717789 211.264709,55.5277392 211.264709,54.3836995 L211.264709,52.66764 L210.979655,52.66764 Z M210.694601,37.795124 L208.414166,37.795124 C203.568243,37.795124 199.862537,38.3671439 197.582103,39.7971935 C195.016614,41.2272431 193.876397,43.2293125 193.876397,45.8034018 C193.876397,47.8054713 194.446505,49.2355209 195.586723,50.3795606 C196.72694,51.5236003 198.437266,51.8096102 200.7177,51.8096102 C202.428026,51.8096102 204.138352,51.5236003 205.848678,50.9515804 C207.559003,50.3795606 208.699221,49.5215308 209.554383,48.6635011 C210.409546,47.8054713 210.979655,46.9474415 210.979655,46.0894118 L210.979655,37.795124 L210.694601,37.795124 Z"></path>
                        <path d="M275.116874,53.5256697 C272.266331,56.385769 268.845679,57.8158186 264.854919,57.8158186 C260.008996,57.8158186 256.018235,56.099759 253.452747,52.9536499 C250.602203,49.5215308 249.461986,44.9453721 249.461986,38.6531538 C249.461986,34.363005 250.032095,30.9308859 251.457366,27.7847768 C252.882638,24.9246775 254.592964,22.6365982 256.873398,20.9205386 C259.153833,19.2044791 262.004376,18.6324592 265.139973,18.6324592 C269.130733,18.6324592 272.551385,20.0625089 275.116874,22.6365982 L275.116874,4.04595322 C275.116874,2.04388377 276.542145,0.61383416 278.537525,0.61383416 L278.537525,0.61383416 C280.247851,0.61383416 281.958177,2.04388377 281.958177,4.04595322 L281.958177,54.3836995 C281.958177,55.8137491 280.81796,56.6717789 279.677743,56.6717789 L277.682362,56.6717789 C276.257091,56.6717789 275.401928,55.5277392 275.401928,54.3836995 L275.401928,53.5256697 L275.116874,53.5256697 Z M275.116874,28.3567966 C273.406548,26.6407371 271.981276,25.7827073 270.556005,25.2106875 C269.130733,24.6386676 267.705462,24.3526577 265.995136,24.3526577 C262.859539,24.3526577 260.579104,25.4966974 258.868778,27.7847768 C257.158452,30.0728561 256.30329,33.5049752 256.30329,37.795124 C256.30329,47.2334515 259.723941,52.0956201 266.28019,52.0956201 C268.560625,52.0956201 270.556005,51.5236003 272.551385,50.3795606 C274.261711,49.2355209 275.116874,48.0914812 275.116874,46.6614316 L275.116874,28.3567966 Z"></path>
                        <path d="M62.7514162,54.6697094 C63.3215248,54.0976896 63.6065792,53.5256697 63.6065792,52.66764 C63.6065792,51.8096102 63.0364705,50.9515804 62.1813076,50.3795606 C61.611199,50.0935507 61.3261447,49.8075408 60.7560361,49.8075408 C60.1859275,49.8075408 59.6158189,50.0935507 59.0457103,50.3795606 C58.4756017,50.6655705 57.905493,51.2375904 57.0503301,51.5236003 C56.1951672,51.8096102 55.3400043,52.0956201 54.4848414,52.0956201 C51.0641897,52.0956201 49.3538639,49.8075408 49.3538639,45.5173919 L49.3538639,25.2106875 L58.760656,25.2106875 C60.1859275,25.2106875 61.0410904,24.0666478 61.0410904,22.9226081 L61.0410904,21.7785684 C61.0410904,20.3485188 59.9008732,19.490489 58.760656,19.490489 L49.3538639,19.490489 L49.3538639,11.4822112 C49.3538639,9.76615167 47.9285924,8.05009213 45.9332122,8.05009213 C44.2228864,8.05009213 42.5125606,9.48014174 42.5125606,11.4822112 L42.5125606,45.231382 C42.5125606,48.3774911 42.7976149,50.6655705 43.3677235,52.0956201 C44.792995,56.099759 48.2136467,58.1018285 53.3446242,58.1018285 C55.05495,58.1018285 56.4802215,57.8158186 57.905493,57.5298086 C60.4709818,56.385769 61.8962533,55.2417293 62.7514162,54.6697094 Z"></path>
                        <path d="M243.190792,25.4966974 C243.475846,25.4966974 244.045954,25.7827073 244.331009,25.7827073 C246.041335,25.7827073 247.75166,24.3526577 247.75166,22.3505882 C247.75166,21.2065485 247.181552,20.0625089 246.326389,19.490489 C245.75628,18.9184692 244.901117,18.9184692 243.7609,18.6324592 C243.190792,18.6324592 242.620683,18.3464493 241.76552,18.3464493 C240.055194,18.3464493 238.344868,18.6324592 236.919597,19.490489 C235.494325,20.3485188 234.069054,21.4925585 233.213891,22.9226081 L232.358728,20.6345287 C232.073674,19.490489 230.933456,18.6324592 229.793239,18.6324592 C228.082913,18.6324592 226.942696,20.0625089 226.942696,21.4925585 L226.942696,54.0976896 L226.942696,54.0976896 C226.942696,55.2417293 227.797859,56.385769 229.223131,56.385769 L231.503565,56.385769 C232.643782,56.385769 233.783999,55.5277392 233.783999,54.0976896 L233.783999,54.0976896 L233.783999,30.0728561 C233.783999,28.6428065 234.354108,27.4987668 235.77938,26.3547271 C237.204651,25.2106875 238.629923,24.6386676 240.625303,24.6386676 C241.480466,25.2106875 242.335629,25.2106875 243.190792,25.4966974 Z"></path>
                    </g>
                    <path d="M140.996513,227.991722 C140.426405,227.419702 140.14135,226.847682 140.14135,225.131623 L140.14135,187.092303 L140.14135,181.086095 C140.14135,179.370035 138.716079,177.653976 136.720699,177.653976 C134.725318,177.653976 133.300047,179.084026 133.300047,181.086095 L133.300047,187.092303 L133.300047,225.131623 C133.300047,227.133692 133.585101,228.563742 133.870155,229.993792 C134.440264,231.137831 135.010373,232.281871 135.865536,232.853891 C136.720699,233.425911 137.860916,233.997931 139.001133,234.28394 C140.14135,234.56995 141.851676,234.56995 143.276948,234.28394 C144.702219,234.28394 146.127491,233.139901 146.127491,231.709851 C146.127491,230.279802 145.272328,229.421772 143.847056,229.135762 C143.276948,228.849752 141.566622,228.563742 140.996513,227.991722 Z"></path>
                </g>
            </g>
        </g>
    </g>
</svg>