<svg width="158" height="83" viewBox="0 0 158 83" xmlns="http://www.w3.org/2000/svg"><title>isi-logo_blue_195x121</title><g fill="#2C5574"><path d="M66.6 50.5c-3.4 0-6.6-.7-9.7-2-3-1.3-5.6-3.1-7.9-5.3-2.3-2.3-4.1-5-5.3-7.9-1.3-3.1-2-6.3-2-9.7 0-3.4.7-6.6 2-9.7 1.3-3 3.1-5.6 5.3-7.9 2.3-2.3 5-4.1 7.9-5.3 3.1-1.3 6.3-2 9.7-2 1.3 0 2.3 1 2.3 2.3 0 1.3-1 2.3-2.3 2.3-5.5 0-10.6 2.1-14.4 6-3.9 3.9-6 9-6 14.4 0 5.5 2.1 10.6 6 14.4 3.9 3.9 9 6 14.4 6 5.5 0 10.6-2.1 14.4-6 3.9-3.9 6-9 6-14.4 0-3.6-.9-7.1-2.7-10.2-.6-1.1-.3-2.5.8-3.1 1.1-.6 2.5-.3 3.1.8 2.2 3.8 3.3 8.1 3.3 12.5 0 3.4-.7 6.6-2 9.7-1.3 3-3.1 5.6-5.3 7.9-2.3 2.3-5 4.1-7.9 5.3-3 1.3-6.3 1.9-9.7 1.9z"/><path d="M91.6.6c3.4 0 6.6.7 9.7 2 3 1.3 5.6 3.1 7.9 5.3 2.3 2.3 4.1 5 5.3 7.9 1.3 3.1 2 6.3 2 9.7 0 3.4-.7 6.6-2 9.7-1.3 3-3.1 5.6-5.3 7.9-2.3 2.3-5 4.1-7.9 5.3-3.1 1.3-6.3 2-9.7 2-1.3 0-2.3-1-2.3-2.3 0-1.3 1-2.3 2.3-2.3 5.5 0 10.6-2.1 14.4-6 3.9-3.9 6-9 6-14.4 0-5.5-2.1-10.6-6-14.4-3.9-3.9-9-6-14.4-6-5.5 0-10.6 2.1-14.4 6-3.9 3.9-6 9-6 14.4 0 3.6.9 7.1 2.7 10.2.6 1.1.3 2.5-.8 3.1-1.1.6-2.5.3-3.1-.8-2.2-3.8-3.3-8.1-3.3-12.5 0-3.4.7-6.6 2-9.7 1.3-3 3.1-5.6 5.3-7.9 2.3-2.3 5-4.1 7.9-5.3 3-1.2 6.3-1.9 9.7-1.9zM15.5 81.2c-1 1-2.2 1.5-3.6 1.5-1.7 0-3.1-.6-4-1.7-1-1.2-1.4-2.8-1.4-5 0-1.5.2-2.7.7-3.8.5-1 1.1-1.8 1.9-2.4.8-.6 1.8-.8 2.9-.8 1.4 0 2.6.5 3.5 1.4v-6.5c0-.7.5-1.2 1.2-1.2.6 0 1.2.5 1.2 1.2v17.6c0 .5-.4.8-.8.8h-.7c-.5 0-.8-.4-.8-.8v-.3h-.1zm-.1-8.8c-.6-.6-1.1-.9-1.6-1.1-.5-.2-1-.3-1.6-.3-1.1 0-1.9.4-2.5 1.2-.6.8-.9 2-.9 3.5 0 3.3 1.2 5 3.5 5 .8 0 1.5-.2 2.2-.6.6-.4.9-.8.9-1.3v-6.4zm26.8 8.5c-.6.6-1.2 1-1.9 1.3-.7.3-1.4.4-2.3.4-1.3 0-2.3-.3-3.1-1-.7-.7-1.1-1.6-1.1-2.9 0-1.5.6-2.6 1.9-3.4 1.2-.8 3-1.2 5.2-1.3h1.2v-.4c0-.9-.2-1.6-.7-2-.4-.4-1.1-.6-2.1-.6-.7 0-1.4.1-1.9.3-.3.1-.6.2-.9.4 0 0-.2.1-.3.2-.1.1-.3.1-.5.1-.5 0-1-.4-1-1 0-.3.1-.5.3-.7.2-.1.4-.3.5-.4.5-.3 1.1-.5 1.9-.6.7-.2 1.5-.2 2.2-.2 1.7 0 3 .4 3.8 1.1.8.7 1.2 2 1.2 3.7v7.6c0 .5-.4.8-.8.8h-.6c-.5 0-.8-.4-.8-.8v-.6h-.2zm0-5.2h-.8c-1.7 0-3 .2-3.8.7-.9.5-1.3 1.2-1.3 2.1 0 .7.2 1.2.6 1.6.4.4 1 .5 1.8.5.6 0 1.2-.1 1.8-.3.6-.2 1-.5 1.3-.8.3-.3.5-.6.5-.9v-2.9h-.1zM.9 81.4c0 .5.4.8.8.8h.8c.5 0 .8-.4.8-.8V64.9c0-.7-.5-1.2-1.2-1.2s-1.2.5-1.2 1.2v16.5zm29-1.4c-.8.5-1.6.7-2.7.7-1.3 0-2.3-.4-3-1.2-.7-.8-1.1-1.9-1.1-3.3h8c.4 0 .8-.4.8-.8v-.8c0-1.1-.2-2.1-.6-3-.4-.9-1-1.5-1.8-2s-1.8-.7-2.9-.7c-1.1 0-2.1.3-3.1.8-.9.5-1.6 1.3-2.1 2.3-.5 1-.8 2.2-.8 3.6 0 2.3.5 4 1.6 5.2 1.1 1.2 2.6 1.8 4.7 1.8 1.7 0 3-.4 4-1.1.2-.1.3-.3.4-.4l.1-.1c.1-.1.1-.3.1-.5 0-.5-.4-1-1-1-.2 0-.4.1-.6.2.2.1.1.2 0 .3zm-.3-5.9c0 .2-.2.4-.4.4h-6.1c.1-1.1.4-1.9 1-2.6.6-.6 1.4-1 2.4-1 2 0 3 1.1 3.1 3.2zm68.5-4.3l.3.8c.5-.5 1.1-.9 1.9-1.2.7-.3 1.6-.4 2.4-.4 1.1 0 2 .2 2.7.7.7.5 1.2 1.2 1.4 2.2.1.5.2 1.3.2 2.5v7.1c0 .4-.3.8-.8.8h-.8c-.4 0-.8-.3-.8-.8v-7c0-.9-.1-1.5-.2-1.9-.1-.5-.4-.9-.9-1.1-.4-.2-1-.4-1.7-.4s-1.3.1-1.8.3c-.5.2-.9.4-1.2.7-.3.3-.4.6-.4 1v8.4c0 .4-.3.8-.8.8h-.8c-.4 0-.8-.3-.8-.8V70.2c0-.6.5-1 1-1 .6 0 .9.3 1.1.6zm-28.1-5c.3.2.5.6.5 1 0 .6-.5 1.1-1.1 1.1-.2 0-.5-.1-.7-.2-.1-.1-.3-.2-.5-.3-.3-.2-.7-.3-1.1-.5-.7-.2-1.3-.3-2-.3-1.1 0-2 .2-2.5.7-.6.5-.9 1.2-.9 2 0 .5.1.9.3 1.3.2.4.6.7 1.1 1 .5.3 1.4.6 2.6 1 1.7.5 2.9 1.2 3.7 2.1.8.9 1.2 2 1.2 3.3 0 1.7-.6 3.1-1.7 4.1-1.1 1-2.6 1.5-4.6 1.5-1 0-2-.1-2.8-.3-.9-.2-1.6-.5-2.1-.9-.2-.1-.5-.4-.6-.5-.1-.2-.2-.4-.2-.6 0-.6.5-1.1 1.1-1.1.2 0 .4.1.6.2l.4.2 1.2.6c.8.3 1.6.5 2.5.5 1.2 0 2.1-.3 2.8-.8.6-.6 1-1.3 1-2.3 0-.6-.1-1.1-.3-1.6-.2-.4-.6-.8-1.1-1.1-.5-.3-1.2-.6-2.2-1-1.4-.4-2.4-.8-3.1-1.3-.7-.5-1.2-1-1.6-1.6-.4-.6-.5-1.4-.5-2.3 0-1.1.2-2 .7-2.7.5-.8 1.2-1.3 2.1-1.7.9-.4 1.9-.6 3.1-.6.7 0 1.5.1 2.3.3 1.3 0 2.2.7 2.4.8zm49.1 16.4c-1 1-2.2 1.5-3.6 1.5-1.7 0-3.1-.6-4-1.7-1-1.2-1.4-2.8-1.4-5 0-1.5.2-2.7.7-3.8.5-1 1.1-1.8 1.9-2.4.8-.6 1.8-.8 2.9-.8 1.4 0 2.6.5 3.5 1.4v-6.5c0-.7.5-1.2 1.2-1.2.6 0 1.2.5 1.2 1.2v17.6c0 .5-.4.8-.8.8h-.7c-.5 0-.8-.4-.8-.8v-.3h-.1zm-.1-8.8c-.6-.6-1.1-.9-1.6-1.1-.5-.2-1-.3-1.6-.3-1.1 0-1.9.4-2.5 1.2-.6.8-.9 2-.9 3.5 0 3.3 1.2 5 3.5 5 .8 0 1.5-.2 2.2-.6.6-.4.9-.8.9-1.3v-6.4zm-28.5 8.5c-.6.6-1.2 1-1.9 1.3-.7.3-1.4.4-2.3.4-1.3 0-2.3-.3-3.1-1-.7-.7-1.1-1.6-1.1-2.9 0-1.5.6-2.6 1.9-3.4 1.2-.8 3-1.2 5.2-1.3h1.2v-.4c0-.9-.2-1.6-.7-2-.5-.4-1.2-.6-2.2-.6-.7 0-1.4.1-1.9.3-.3.1-.6.2-.9.4 0 0-.2.1-.3.2-.1.1-.3.1-.5.1-.5 0-1-.4-1-1 0-.3.1-.5.3-.7.2-.1.4-.3.5-.4.5-.3 1.1-.5 1.9-.6.7-.2 1.5-.2 2.2-.2 1.7 0 3 .4 3.8 1.1.8.7 1.2 2 1.2 3.7v7.6c0 .5-.4.8-.8.8h-.6c-.5 0-.8-.4-.8-.8v-.6h-.1zm-.1-5.2h-.8c-1.7 0-3 .2-3.8.7-.9.5-1.3 1.2-1.3 2.1 0 .7.2 1.2.6 1.6.4.4 1 .5 1.8.5.6 0 1.2-.1 1.8-.3.6-.2 1-.5 1.3-.8.3-.3.5-.6.5-.9v-2.9h-.1zm42.1 5.2c-.6.6-1.2 1-1.9 1.3-.7.3-1.4.4-2.3.4-1.3 0-2.3-.3-3.1-1-.7-.7-1.1-1.6-1.1-2.9 0-1.5.6-2.6 1.9-3.4 1.2-.8 3-1.2 5.2-1.3h1.2v-.4c0-.9-.2-1.6-.7-2-.5-.4-1.2-.6-2.2-.6-.7 0-1.4.1-1.9.3-.3.1-.6.2-.9.4 0 0-.2.1-.3.2-.1.1-.3.1-.5.1-.5 0-1-.4-1-1 0-.3.1-.5.3-.7.2-.1.4-.3.5-.4.5-.3 1.1-.5 1.9-.6.7-.2 1.5-.2 2.2-.2 1.7 0 3 .4 3.8 1.1.8.7 1.2 2 1.2 3.7v7.6c0 .5-.4.8-.8.8h-.6c-.5 0-.8-.4-.8-.8v-.6h-.1zm-.1-5.2h-.8c-1.7 0-3 .2-3.8.7-.9.5-1.3 1.2-1.3 2.1 0 .7.2 1.2.6 1.6.4.4 1 .5 1.8.5.6 0 1.2-.1 1.8-.3.6-.2 1-.5 1.3-.8.3-.3.5-.6.5-.9v-2.9h-.1zm22.6 5.5c-1 1-2.2 1.5-3.6 1.5-1.7 0-3.1-.6-4-1.7-1-1.2-1.4-2.8-1.4-5 0-1.5.2-2.7.7-3.8.5-1 1.1-1.8 1.9-2.4.8-.6 1.8-.8 2.9-.8 1.4 0 2.6.5 3.5 1.4v-6.5c0-.7.5-1.2 1.2-1.2.6 0 1.2.5 1.2 1.2v17.6c0 .5-.4.8-.8.8h-.7c-.5 0-.8-.4-.8-.8v-.3h-.1zm0-8.8c-.6-.6-1.1-.9-1.6-1.1-.5-.2-1-.3-1.6-.3-1.1 0-1.9.4-2.5 1.2-.6.8-.9 2-.9 3.5 0 3.3 1.2 5 3.5 5 .8 0 1.5-.2 2.2-.6.6-.4.9-.8.9-1.3v-6.4zm-74.5 9.2c.2-.2.3-.4.3-.7 0-.3-.2-.6-.5-.8-.2-.1-.3-.2-.5-.2s-.4.1-.6.2c-.2.1-.4.3-.7.4-.3.1-.6.2-.9.2-1.2 0-1.8-.8-1.8-2.3v-7.1h3.3c.5 0 .8-.4.8-.8v-.4c0-.5-.4-.8-.8-.8h-3.3v-2.8c0-.6-.5-1.2-1.2-1.2-.6 0-1.2.5-1.2 1.2v11.8c0 1.1.1 1.9.3 2.4.5 1.4 1.7 2.1 3.5 2.1.6 0 1.1-.1 1.6-.2.9-.4 1.4-.8 1.7-1zm63.3-10.2c.1 0 .3.1.4.1.6 0 1.2-.5 1.2-1.2 0-.4-.2-.8-.5-1-.2-.2-.5-.2-.9-.3-.2 0-.4-.1-.7-.1-.6 0-1.2.1-1.7.4-.5.3-1 .7-1.3 1.2l-.3-.8c-.1-.4-.5-.7-.9-.7-.6 0-1 .5-1 1v11.4c0 .4.3.8.8.8h.8c.4 0 .8-.3.8-.8V73c0-.5.2-.9.7-1.3.5-.4 1-.6 1.7-.6.3.2.6.2.9.3zm-93.5 8.8c-.2-.2-.3-.4-.3-1V63.8c0-.6-.5-1.2-1.2-1.2s-1.2.5-1.2 1.2v15.4c0 .7.1 1.2.2 1.7.2.4.4.8.7 1 .3.2.7.4 1.1.5.4.1 1 .1 1.5 0 .5 0 1-.4 1-.9s-.3-.8-.8-.9c-.2-.1-.8-.2-1-.4z"/></g></svg>